<svg width="692" height="473" viewBox="0 0 692 473" fill="none" xmlns="http://www.w3.org/2000/svg">
<mask id="mask0" mask-type="alpha" maskUnits="userSpaceOnUse" x="0" y="0" width="692" height="473">
<rect width="692" height="473" fill="#C4C4C4"/>
</mask>
<g mask="url(#mask0)">
<path fill-rule="evenodd" clip-rule="evenodd" d="M489.979 38.5035C489.979 80.2196 456.158 114 414.51 114C372.822 114 339 80.2196 339 38.5035C339 -3.19896 372.822 -37 414.51 -37C456.158 -37 489.979 -3.19896 489.979 38.5035ZM414.219 -13.8963C410.02 -13.8963 405.815 -13.1874 401.727 -11.7833C401.468 -11.6947 401.212 -11.6046 400.957 -11.5132C400.915 -11.491 400.871 -11.4714 400.825 -11.4548C400.773 -11.4367 400.722 -11.4212 400.671 -11.4095C399.062 -10.822 397.521 -10.1779 396.047 -9.48297C395.963 -9.39285 395.861 -9.31631 395.743 -9.25917C395.643 -9.20378 395.512 -9.17514 395.386 -9.16607C393.947 -8.46367 392.573 -7.71245 391.261 -6.9181C391.184 -6.78648 391.077 -6.67029 390.944 -6.58175C390.784 -6.49274 390.629 -6.43955 390.465 -6.42658C389.169 -5.60912 387.935 -4.7491 386.761 -3.85232C386.7 -3.68667 386.595 -3.53496 386.448 -3.41579C386.29 -3.29204 386.11 -3.22347 385.929 -3.20254C384.747 -2.2592 383.628 -1.2782 382.569 -0.265915C382.524 -0.0930443 382.434 0.0701332 382.298 0.203766C382.164 0.337715 381.997 0.42511 381.819 0.465958C380.756 1.52565 379.757 2.61702 378.818 3.73307C378.801 3.93242 378.725 4.12894 378.59 4.29514C378.449 4.45991 378.272 4.57315 378.082 4.62826C377.159 5.77692 376.298 6.9492 375.496 8.1377C375.508 8.34953 375.455 8.56736 375.331 8.75872C375.202 8.94999 375.027 9.08374 374.826 9.15445C374.018 10.4125 373.274 11.6862 372.589 12.9669C372.605 13.1563 372.566 13.352 372.466 13.5304C372.383 13.7152 372.244 13.8562 372.077 13.9482C371.384 15.3074 370.758 16.6719 370.194 18.0316C370.228 18.2139 370.212 18.4071 370.139 18.5906C370.063 18.7734 369.94 18.9216 369.791 19.0285C369.218 20.4835 368.715 21.9301 368.277 23.3558C368.314 23.5186 368.312 23.6924 368.263 23.8635C368.212 24.0371 368.118 24.1851 367.995 24.3006C367.546 25.8504 367.174 27.3717 366.87 28.848C366.899 28.9827 366.901 29.1259 366.872 29.27C366.845 29.4147 366.788 29.5463 366.708 29.6597C366.396 31.2941 366.168 32.8684 366.015 34.3594C366.052 34.4822 366.067 34.6138 366.055 34.7486C366.041 34.8815 366.002 35.0066 365.943 35.1192C365.841 36.2779 365.786 37.3818 365.771 38.4193C365.766 38.8694 365.765 39.3735 365.773 39.9258C365.809 40.0267 365.83 40.1348 365.834 40.2474C365.834 40.3556 365.817 40.4602 365.786 40.5585C366.052 51.1456 369.507 76.6938 396.11 83.212C403.785 85.0979 410.998 86.0408 417.591 86.0477C436.615 86.0477 449.816 78.2908 456.809 62.963C457.254 61.9902 457.671 61.0284 458.063 60.0778C458.071 59.9779 458.095 59.8774 458.135 59.7794C458.175 59.681 458.229 59.5921 458.293 59.514C458.948 57.8882 459.529 56.2954 460.039 54.7362C460.035 54.6219 460.05 54.5052 460.088 54.3903C460.125 54.2756 460.181 54.1713 460.251 54.08C460.773 52.4339 461.217 50.8259 461.59 49.2566C461.579 49.148 461.585 49.0355 461.609 48.9223C461.635 48.8042 461.681 48.6959 461.743 48.5999C462.128 46.9047 462.43 45.2555 462.659 43.6533C462.65 43.5692 462.652 43.4823 462.666 43.3942C462.677 43.3118 462.698 43.2331 462.727 43.1591C462.962 41.4106 463.108 39.7189 463.18 38.0851C463.164 38.0082 463.158 37.9286 463.162 37.8477C463.167 37.775 463.179 37.7046 463.197 37.637C463.26 35.8623 463.233 34.1571 463.132 32.523C463.115 32.4604 463.104 32.3953 463.1 32.3285C463.095 32.2591 463.097 32.191 463.106 32.1248C462.185 18.8758 456.415 10.382 454.184 7.55782C454.138 7.51922 454.095 7.47573 454.054 7.42721C454.004 7.36761 453.961 7.30387 453.926 7.2373C453.553 6.78057 453.326 6.53852 453.306 6.51783C453.254 6.44999 452.263 5.235 450.475 3.42831C450.395 3.38404 450.319 3.32893 450.249 3.2635C450.176 3.19036 450.116 3.10915 450.07 3.0228C449.041 2.00054 447.781 0.817108 446.315 -0.439644C446.23 -0.476536 446.15 -0.525333 446.079 -0.586449C446.006 -0.649982 445.943 -0.721859 445.892 -0.799511C444.673 -1.82773 443.319 -2.89854 441.844 -3.96531C441.763 -3.99632 441.684 -4.03857 441.61 -4.09256C441.534 -4.14602 441.468 -4.20739 441.412 -4.27464C440.065 -5.23208 438.621 -6.18262 437.087 -7.09241C437.025 -7.11345 436.964 -7.14096 436.904 -7.17556C436.848 -7.20987 436.796 -7.24882 436.749 -7.29166C430.491 -10.9478 422.787 -13.8963 414.219 -13.8963ZM454.973 5.32904C454.902 5.24913 454.856 5.20015 454.84 5.18247L454.834 5.1757C454.69 4.99638 453.868 3.98897 452.448 2.50358L459.224 -4.27306C459.617 -4.67226 459.617 -5.31235 459.224 -5.71155C458.818 -6.10386 458.178 -6.10386 457.786 -5.71155L451.019 1.05556C450.207 0.257755 449.274 -0.618626 448.229 -1.53979L454.414 -8.8113C454.785 -9.24491 454.73 -9.885 454.31 -10.2429C453.891 -10.6008 453.23 -10.5595 452.872 -10.1259L446.682 -2.86316C445.751 -3.63707 444.748 -4.42996 443.677 -5.22387L449.257 -12.9644C449.587 -13.4187 449.477 -14.0587 449.037 -14.3753C448.576 -14.7126 447.949 -14.6094 447.619 -14.1482L442.033 -6.40454C441.023 -7.10674 439.962 -7.80272 438.851 -8.47993L443.739 -16.6943C444.014 -17.1693 443.856 -17.7956 443.381 -18.0847C442.899 -18.3737 442.287 -18.2085 441.991 -17.7199L437.098 -9.50912C436.035 -10.1085 434.933 -10.6867 433.794 -11.2341L437.852 -19.9264C438.086 -20.4357 437.858 -21.0414 437.37 -21.2823C436.854 -21.5094 436.248 -21.296 436.007 -20.7867L431.953 -12.076C430.843 -12.558 429.701 -13.0082 428.529 -13.4185L431.596 -22.5584C431.775 -23.0883 431.479 -23.6596 430.956 -23.8385C430.426 -24.0175 429.855 -23.7284 429.669 -23.2053L426.592 -14.0504C425.455 -14.3945 424.292 -14.6992 423.104 -14.9577L425.027 -24.4755C425.117 -25.0261 424.773 -25.556 424.215 -25.6662C423.678 -25.7763 423.135 -25.4253 423.024 -24.8746L421.123 -15.341C419.967 -15.5367 418.789 -15.6872 417.591 -15.7866L418.169 -25.5013C418.203 -26.0588 417.777 -26.5406 417.219 -26.5681C416.648 -26.6163 416.18 -26.1827 416.145 -25.6252L415.554 -15.9047C415.112 -15.9193 414.666 -15.9267 414.219 -15.9267C413.492 -15.9267 412.764 -15.9062 412.037 -15.8654L411.22 -25.5528C411.172 -26.1241 410.69 -26.5371 410.126 -26.4889C409.568 -26.4407 409.155 -25.952 409.21 -25.3877L410.015 -15.6997C408.849 -15.5741 407.685 -15.3967 406.526 -15.1684L404.336 -24.6326C404.212 -25.1763 403.668 -25.5204 403.131 -25.3897C402.567 -25.2658 402.237 -24.722 402.367 -24.1783L404.535 -14.7249C403.375 -14.4366 402.222 -14.0972 401.078 -13.7077L397.734 -22.7493C397.541 -23.2724 396.977 -23.534 396.433 -23.3481C395.91 -23.1485 395.642 -22.5635 395.835 -22.0404L399.173 -13.0186C397.989 -12.5672 396.842 -12.0859 395.73 -11.5769L391.517 -20.1889C391.262 -20.6845 390.657 -20.8978 390.168 -20.6569C389.659 -20.4023 389.459 -19.8035 389.7 -19.2873L393.914 -10.7053C392.787 -10.1392 391.699 -9.54394 390.649 -8.92223L385.568 -16.9953C385.266 -17.4702 384.639 -17.6079 384.171 -17.3188C383.696 -17.016 383.559 -16.3896 383.848 -15.9147L388.923 -7.85568C387.871 -7.1769 386.859 -6.47091 385.885 -5.74067L379.978 -13.1893C379.634 -13.6298 378.98 -13.6986 378.56 -13.3544C378.12 -12.9965 378.051 -12.3702 378.388 -11.9297L384.28 -4.48561C383.313 -3.69868 382.387 -2.88734 381.502 -2.05496L374.823 -8.81946C374.438 -9.21177 373.791 -9.21177 373.385 -8.82634C372.999 -8.43402 372.979 -7.79393 373.385 -7.38785L380.05 -0.636318C379.169 0.259769 378.33 1.17691 377.533 2.11123L370.207 -3.88153C369.766 -4.23943 369.147 -4.17063 368.789 -3.7439C368.424 -3.31029 368.493 -2.67019 368.934 -2.31917L376.248 3.67559C375.467 4.66499 374.729 5.67063 374.033 6.68818L366.156 1.48369C365.681 1.17397 365.055 1.30474 364.738 1.76588C364.436 2.24079 364.566 2.86022 365.021 3.17683L372.921 8.37887C372.246 9.44799 371.614 10.5274 371.024 11.6121L362.624 7.19141C362.135 6.93675 361.522 7.12947 361.254 7.62502C360.999 8.12058 361.185 8.73315 361.688 8.99469L370.082 13.4191C369.514 14.5566 368.99 15.6971 368.509 16.835L359.718 13.229C359.202 13.0156 358.61 13.2703 358.39 13.7865C358.176 14.2958 358.431 14.9015 358.954 15.108L367.75 18.7136C367.291 19.9075 366.877 21.0951 366.505 22.27L357.382 19.4998C356.852 19.3346 356.287 19.6375 356.115 20.1743C355.964 20.7112 356.26 21.2825 356.804 21.4339L365.925 24.2116C365.577 25.4497 365.276 26.6692 365.018 27.8622L355.646 25.9594C355.089 25.8493 354.566 26.2003 354.449 26.7509C354.339 27.3016 354.697 27.8384 355.233 27.9485L364.623 29.8475C364.393 31.1155 364.212 32.3465 364.076 33.5301L354.541 32.6081C353.983 32.5461 353.501 32.9522 353.433 33.5166C353.377 34.0672 353.784 34.5628 354.341 34.6178L363.884 35.5529C363.809 36.5428 363.767 37.4914 363.755 38.3917C363.751 38.679 363.748 38.966 363.748 39.2527L354.14 39.3458C353.589 39.3458 353.142 39.8138 353.149 40.3713C353.149 40.9288 353.617 41.3762 354.14 41.3762H354.154L363.779 41.283C363.818 42.5476 363.894 43.8044 364.008 45.0497L354.408 46.0096C353.851 46.0647 353.445 46.5602 353.5 47.1109C353.548 47.6408 353.989 48.0263 354.512 48.0263H354.608L364.225 47.0708C364.38 48.3221 364.573 49.5596 364.802 50.7794L355.29 52.6353C354.747 52.7386 354.375 53.2685 354.485 53.8191C354.581 54.3147 355.001 54.6451 355.476 54.6451C355.545 54.6451 355.614 54.6313 355.676 54.6175L365.211 52.767C365.484 53.9873 365.794 55.1872 366.141 56.3625L356.818 59.1932C356.268 59.3515 355.965 59.9158 356.144 60.4527C356.268 60.8932 356.674 61.1754 357.114 61.1754C357.204 61.1754 357.314 61.1616 357.403 61.1272L366.748 58.2879C367.141 59.4539 367.57 60.5924 368.035 61.699L359.023 65.6175C358.513 65.8378 358.28 66.4366 358.479 66.9459C358.665 67.3314 359.043 67.5585 359.429 67.5585C359.567 67.5585 359.697 67.5309 359.835 67.4759L368.863 63.5559C369.232 64.3361 369.619 65.098 370.025 65.84C370.188 66.1377 370.354 66.4323 370.523 66.7237L362.064 71.7814C361.575 72.0704 361.424 72.6968 361.713 73.1786C361.913 73.4883 362.243 73.6672 362.574 73.6672C362.773 73.6672 362.952 73.6259 363.097 73.5227L371.581 68.4536C372.223 69.4484 372.9 70.4037 373.612 71.3194L365.893 77.5754C365.459 77.9333 365.383 78.5734 365.734 79.0002C365.941 79.2548 366.237 79.3787 366.526 79.3787C366.76 79.3787 366.98 79.303 367.166 79.1516L374.891 72.8801C375.65 73.7577 376.444 74.5947 377.273 75.3907L370.616 82.7391C370.231 83.1589 370.265 83.799 370.664 84.1707C370.871 84.3496 371.119 84.4322 371.367 84.4322C371.628 84.4322 371.91 84.3221 372.103 84.095L378.772 76.7535C379.646 77.5053 380.555 78.2156 381.499 78.8842L376.038 87.165C375.728 87.633 375.859 88.2593 376.327 88.569C376.492 88.6792 376.699 88.7411 376.885 88.7411C377.222 88.7411 377.539 88.5828 377.738 88.2731L383.181 80.009C384.159 80.6247 385.17 81.1992 386.215 81.732L382.053 90.6858C381.819 91.1882 382.04 91.7939 382.556 92.0279C382.68 92.0967 382.831 92.1242 382.969 92.1242C383.354 92.1242 383.719 91.904 383.891 91.5392L388.037 82.6041C389.11 83.0846 390.215 83.5243 391.353 83.9229L388.451 93.2472C388.279 93.784 388.575 94.3553 389.105 94.5136C389.215 94.548 389.319 94.5618 389.422 94.5618C389.855 94.5618 390.261 94.2796 390.385 93.846L393.273 84.5469C394.042 84.7781 394.825 84.9916 395.622 85.1873C396.061 85.2947 396.499 85.3992 396.935 85.5007L394.843 95.0345C394.726 95.5783 395.084 96.1151 395.621 96.2321C395.69 96.2528 395.765 96.2597 395.834 96.2597C396.309 96.2597 396.722 95.9362 396.825 95.4544L398.909 85.9416C400.211 86.2205 401.5 86.4724 402.775 86.6971L401.198 96.2963C401.102 96.8538 401.487 97.3769 402.045 97.4526C402.079 97.4663 402.196 97.4663 402.196 97.4663C402.699 97.4663 403.125 97.1222 403.201 96.6267L404.765 87.0277C406.068 87.2307 407.354 87.4045 408.624 87.5489L407.644 97.225C407.589 97.7825 407.995 98.285 408.552 98.3332C408.594 98.3469 408.669 98.3469 408.669 98.3469C409.158 98.3469 409.606 97.9546 409.667 97.4315L410.654 87.7559C411.954 87.8731 413.236 87.9585 414.497 88.0118L414.19 97.7305C414.176 98.2949 414.603 98.7629 415.174 98.7766H415.201C415.759 98.7766 416.206 98.343 416.22 97.7993L416.522 88.07C416.88 88.0754 417.237 88.0781 417.591 88.0781C418.514 88.0781 419.424 88.0605 420.321 88.0254L420.806 97.7638C420.833 98.3144 421.274 98.7343 421.824 98.7343H421.866C422.444 98.6998 422.864 98.2249 422.836 97.6606L422.344 87.9148C423.611 87.8254 424.851 87.6995 426.063 87.537L427.484 97.2159C427.567 97.7183 428.001 98.0831 428.489 98.0831C428.537 98.0831 428.592 98.0762 428.627 98.0693C429.198 97.9798 429.57 97.4637 429.494 96.9199L428.071 87.2299C429.297 87.0189 430.492 86.7685 431.658 86.4789L434.166 95.9762C434.283 96.4374 434.689 96.7402 435.129 96.7402C435.188 96.7402 435.25 96.7298 435.315 96.7189C435.342 96.7144 435.37 96.7098 435.398 96.7058C435.941 96.5612 436.258 96.0037 436.107 95.4669L433.614 85.948C434.77 85.6069 435.894 85.2249 436.987 84.8022L440.722 93.9266C440.874 94.3189 441.252 94.553 441.651 94.553C441.789 94.553 441.913 94.5392 442.03 94.4841C442.567 94.2708 442.815 93.6789 442.601 93.1558L438.866 84.0216C439.944 83.5417 440.99 83.0193 442.002 82.4546L447.026 90.9701C447.205 91.2935 447.542 91.4725 447.886 91.4725C448.072 91.4725 448.244 91.4243 448.409 91.3349C448.891 91.0458 449.049 90.4332 448.753 89.9446L443.744 81.4209C444.723 80.8033 445.669 80.1429 446.582 79.4399L452.856 87.1031C453.062 87.3509 453.365 87.4817 453.633 87.4817C453.867 87.4817 454.088 87.4129 454.294 87.2546C454.721 86.8967 454.783 86.2566 454.425 85.8229L448.155 78.1568C449.025 77.4062 449.861 76.6133 450.665 75.7782L458.009 82.3768C458.209 82.5488 458.45 82.6314 458.684 82.6314C458.973 82.6314 459.241 82.5213 459.434 82.3011C459.826 81.8743 459.785 81.2343 459.358 80.8626L452.03 74.2797C452.789 73.4011 453.515 72.4809 454.208 71.5191L462.383 76.9754C462.575 77.0925 462.754 77.1475 462.961 77.1475C463.284 77.1475 463.601 76.9892 463.807 76.6933C464.09 76.2252 463.993 75.5989 463.518 75.2892L455.351 69.8466C455.994 68.8565 456.605 67.8264 457.183 66.7564L465.918 71.0895C466.056 71.1583 466.221 71.1996 466.365 71.1996C466.744 71.1996 467.102 70.9862 467.267 70.6352C467.522 70.1259 467.315 69.5202 466.82 69.2724L458.112 64.9439C458.294 64.5703 458.472 64.1922 458.647 63.8096C459.005 63.0264 459.346 62.25 459.67 61.4806L468.604 65.0378C468.721 65.086 468.858 65.1135 468.975 65.1135C469.382 65.1135 469.753 64.8726 469.925 64.4734C470.132 63.9434 469.891 63.3584 469.354 63.1519L460.438 59.5967C460.919 58.3746 461.358 57.1704 461.758 55.9846L470.9 58.8916C471.011 58.9192 471.107 58.9329 471.224 58.9329C471.637 58.9329 472.036 58.6576 472.167 58.224C472.346 57.6872 472.05 57.1228 471.513 56.9576L462.38 54.0555C462.763 52.8089 463.103 51.5834 463.402 50.3793L472.759 52.5357C472.828 52.5564 472.897 52.5633 472.979 52.5633C473.441 52.5633 473.86 52.2467 473.977 51.7786C474.094 51.2349 473.75 50.6912 473.206 50.5604L463.863 48.3995C464.137 47.1354 464.367 45.8961 464.555 44.682L474.071 46.0166C474.119 46.0235 474.16 46.0235 474.215 46.0235C474.718 46.0235 475.145 45.6587 475.227 45.1425C475.296 44.5987 474.904 44.0825 474.36 44.0068L464.833 42.6769C464.988 41.4032 465.098 40.1587 465.167 38.944L474.78 39.3481H474.821C475.379 39.3481 475.819 38.9145 475.833 38.3776C475.868 37.8202 475.427 37.3452 474.87 37.3177L465.247 36.9256C465.274 35.6533 465.257 34.4158 465.201 33.2139L474.814 32.6107C475.379 32.5763 475.792 32.0945 475.771 31.5232C475.723 30.9795 475.227 30.539 474.697 30.5872L465.068 31.1852C464.961 29.9236 464.812 28.7044 464.627 27.5283L474.129 25.8637C474.686 25.7742 475.058 25.2511 474.955 24.7005C474.872 24.143 474.335 23.7782 473.792 23.8746L464.274 25.5336C464.029 24.2923 463.746 23.1039 463.434 21.9695L472.738 19.2147C473.268 19.0633 473.571 18.492 473.419 17.9552C473.268 17.4183 472.697 17.1154 472.173 17.2737L462.857 20.0261C462.47 18.8149 462.053 17.6736 461.621 16.6038L470.522 12.757C471.038 12.5436 471.272 11.9448 471.038 11.4355C470.818 10.9193 470.212 10.6853 469.717 10.9055L460.822 14.7424C460.286 13.5619 459.738 12.4859 459.203 11.5171L467.533 6.58238C468.022 6.29331 468.173 5.67387 467.878 5.19207C467.609 4.71029 466.99 4.55199 466.494 4.83419L458.179 9.763C457.458 8.59133 456.792 7.63751 456.247 6.90915L463.635 0.689026C464.069 0.331123 464.124 -0.308971 463.766 -0.742584C463.401 -1.16243 462.754 -1.22439 462.334 -0.859604L454.973 5.32904ZM419.081 -0.304401C419.212 -0.283752 419.343 -0.276859 419.467 -0.276859C420.664 -0.276859 421.697 -1.14408 421.889 -2.37609C422.103 -3.72511 421.146 -5.01906 419.79 -5.23931C418.434 -5.48708 417.154 -4.57856 416.9 -3.23643C416.652 -1.87365 417.56 -0.579716 418.902 -0.338821L419.081 -0.304401ZM401.992 -0.641651C402.37 0.363224 403.299 0.996429 404.311 0.996429C404.586 0.996429 404.882 0.955135 405.158 0.845013C405.192 0.838131 405.281 0.803719 405.309 0.789955C406.61 0.342579 407.257 -1.05462 406.809 -2.35545C406.383 -3.64941 404.937 -4.33079 403.616 -3.8903C403.616 -3.8903 403.533 -3.86276 403.513 -3.849C402.226 -3.38786 401.524 -1.94249 401.992 -0.641651ZM425.819 1.6503C426.122 1.77419 426.446 1.83613 426.749 1.83613C427.733 1.83613 428.669 1.25109 429.068 0.280624C429.591 -0.999561 428.972 -2.45182 427.699 -2.96802L427.568 -3.0162C426.294 -3.51864 424.842 -2.91295 424.326 -1.63965C423.81 -0.359463 424.436 1.0928 425.709 1.60212L425.819 1.6503ZM395.302 2.83413C395.77 3.61876 396.602 4.06614 397.47 4.06614C397.889 4.06614 398.309 3.956 398.702 3.72198L397.566 1.51952L398.757 3.70135C399.968 3.04061 400.402 1.5264 399.748 0.321926C399.08 -0.882553 397.566 -1.32303 396.368 -0.662289L396.358 -0.657299C396.32 -0.638634 396.196 -0.578094 396.189 -0.565933C394.999 0.122341 394.613 1.64342 395.302 2.83413ZM432.172 4.954C432.585 5.20866 433.019 5.31879 433.439 5.31879C434.258 5.31879 435.049 4.89205 435.538 4.14872C436.281 3.00618 435.903 1.44381 434.76 0.693596C433.611 -0.0635033 432.076 0.246223 431.305 1.40252C430.541 2.54506 430.865 4.09366 432.021 4.85076L432.04 4.86338C432.08 4.88962 432.161 4.9427 432.172 4.954ZM389.32 7.51438C389.823 8.09253 390.525 8.38848 391.213 8.38848C391.791 8.38848 392.363 8.19577 392.838 7.80346L392.927 7.72086C393.966 6.83987 394.07 5.30503 393.175 4.25886C392.294 3.2058 390.676 3.11631 389.616 4.00418C388.57 4.89205 388.446 6.46821 389.32 7.51438ZM437.967 9.27636C438.429 9.6618 438.986 9.84763 439.537 9.84763C440.218 9.84763 440.927 9.54478 441.416 8.96663C442.317 7.9411 442.18 6.3443 441.161 5.44267C440.142 4.52038 438.559 4.60298 437.651 5.62162C436.722 6.64027 436.804 8.21642 437.823 9.14558C437.851 9.15247 437.961 9.25571 437.967 9.27636ZM447.892 22.4086C448.278 23.3446 449.173 23.8953 450.122 23.8953C450.46 23.8953 450.769 23.8333 451.093 23.7094C452.339 23.207 452.958 21.7203 452.469 20.4539C451.981 19.1668 450.529 18.5267 449.255 19.0085C447.975 19.5041 447.321 20.9426 447.803 22.2296C447.814 22.2407 447.833 22.2837 447.852 22.3253L447.852 22.3255C447.867 22.3612 447.883 22.3959 447.892 22.4086ZM377.771 26.9099C378.053 27.0131 378.343 27.0613 378.625 27.0613C379.643 27.0613 380.6 26.4487 380.965 25.4439C380.968 25.4316 380.981 25.3974 380.994 25.362C381.01 25.3182 381.027 25.2725 381.027 25.2649C381.467 23.9778 380.772 22.6288 379.485 22.1746C378.205 21.7066 376.766 22.4361 376.291 23.7094C375.823 25.0034 376.491 26.435 377.771 26.9099ZM449.826 29.1812C450.033 30.3857 451.065 31.1841 452.242 31.1841C452.387 31.1841 452.545 31.1703 452.697 31.1359C454.059 30.895 454.94 29.546 454.706 28.1901C454.465 26.8342 453.178 25.9325 451.829 26.1666C450.467 26.4074 449.565 27.6945 449.799 29.0573L449.826 29.1812ZM376.395 34.3845C376.512 34.3983 376.636 34.4052 376.753 34.4052C377.971 34.4052 379.017 33.5173 379.217 32.299L376.787 31.8035L379.217 32.244C379.471 30.8881 378.577 29.5942 377.207 29.3533C375.844 29.1055 374.564 30.014 374.316 31.3699L374.295 31.5695C374.096 32.9254 375.025 34.1712 376.395 34.3845ZM450.384 36.3117C450.384 37.6813 451.506 38.7757 452.875 38.7757C454.259 38.7757 455.36 37.6332 455.36 36.2497C455.408 34.8801 454.321 33.7307 452.944 33.6894C451.588 33.6481 450.425 34.7355 450.391 36.1052L450.384 36.3117ZM373.724 39.4984C373.724 40.8749 374.832 41.983 376.209 41.983C377.585 41.983 378.694 40.8749 378.694 39.4984V39.2988C378.659 37.9222 377.462 36.8554 376.126 36.9174C374.764 36.9449 373.676 38.1218 373.724 39.4984ZM451.671 46.2779C451.829 46.2985 451.967 46.3123 452.105 46.3123C453.295 46.3123 454.355 45.4382 454.562 44.2337C454.851 42.8847 453.991 41.5701 452.635 41.2879C451.286 41.0126 449.985 41.8798 449.696 43.2219L449.661 43.4215C449.427 44.7706 450.322 46.0301 451.671 46.2779ZM374.502 47.4823C374.722 48.7006 375.768 49.5472 376.952 49.5472C377.104 49.5472 377.255 49.5334 377.386 49.5059C378.742 49.265 379.643 47.971 379.403 46.6151L379.396 46.4843C379.148 45.1353 377.861 44.2956 376.512 44.5365C375.156 44.7705 374.268 46.1264 374.502 47.4823ZM449.393 53.4978C449.647 53.5873 449.902 53.6286 450.171 53.6286C451.217 53.6286 452.215 52.9334 452.573 51.8873C453.006 50.5864 452.332 49.1686 451.024 48.7144C449.73 48.2739 448.312 48.9621 447.865 50.2698L447.824 50.3937C447.383 51.6946 448.092 53.0711 449.393 53.4978ZM376.649 55.246C377.028 56.244 377.978 56.8566 378.983 56.8566C379.285 56.8566 379.575 56.8016 379.87 56.6914C381.144 56.2028 381.805 54.7643 381.316 53.4772L378.928 54.2412L381.281 53.3739C380.786 52.08 379.354 51.433 378.054 51.9217C376.787 52.4035 376.126 53.8351 376.608 55.1222L376.649 55.246ZM446.206 60.4219C446.537 60.5939 446.929 60.6696 447.3 60.6696C448.23 60.6696 449.124 60.1465 449.544 59.2587C450.205 58.0473 449.73 56.54 448.512 55.8999C447.301 55.246 445.793 55.7278 445.139 56.9392L445.071 57.1044C444.458 58.3502 444.967 59.8162 446.206 60.4219ZM380.394 62.5004C380.875 63.2094 381.653 63.5879 382.465 63.5879C382.947 63.5879 383.422 63.4503 383.849 63.1543C384.998 62.3903 385.287 60.8348 384.516 59.6992L382.383 60.9931L384.454 59.6097C383.697 58.4672 382.142 58.1574 381.006 58.9214C379.857 59.6854 379.547 61.2271 380.318 62.3697C380.318 62.3903 380.394 62.5004 380.394 62.5004ZM441.553 66.4649C442.028 66.8641 442.6 67.0568 443.178 67.0568C443.866 67.0568 444.575 66.7608 445.084 66.1758L445.188 66.0657C446.048 65.0058 445.883 63.4365 444.85 62.5555C443.783 61.6745 442.214 61.8259 441.34 62.879L441.264 62.9547C440.376 64.0078 440.507 65.5839 441.553 66.4649ZM385.824 68.6398C386.299 69.0528 386.884 69.2593 387.462 69.2593C388.157 69.2593 388.852 68.9771 389.32 68.4127C390.25 67.3803 390.153 65.811 389.107 64.8956L389.011 64.8061C387.971 63.9045 386.45 64.049 385.542 65.0883C384.64 66.1207 384.792 67.7382 385.824 68.6398ZM435.572 71.0488C436.054 71.7302 436.839 72.1018 437.637 72.1018C438.14 72.1018 438.649 71.9573 439.083 71.6545C440.218 70.8836 440.507 69.335 439.743 68.1993C438.966 67.0568 437.41 66.7677 436.281 67.5386L436.144 67.6281C435.029 68.4058 434.802 69.9131 435.572 71.0488ZM392.721 73.1411C393.072 73.2994 393.443 73.382 393.808 73.382C394.73 73.382 395.625 72.8658 396.066 71.9779C396.657 70.739 396.134 69.2593 394.895 68.6536L393.698 70.8423L394.792 68.5985C393.553 67.9997 392.06 68.5228 391.454 69.7617C390.862 70.9937 391.365 72.4735 392.617 73.0861L392.721 73.1411ZM409.184 -1.90118C409.549 -0.882538 410.512 -0.249344 411.524 -0.249344C411.813 -0.249344 412.089 -0.304401 412.371 -0.400757L412.508 -0.448936C413.795 -0.916962 414.463 -2.34167 413.995 -3.63562C413.52 -4.92957 412.089 -5.59722 410.801 -5.12919L410.691 -5.08789C409.397 -4.61987 408.723 -3.19513 409.184 -1.90118ZM445.002 14.1218C445.353 15.1404 446.316 15.7737 447.328 15.7737C447.617 15.7737 447.906 15.7255 448.188 15.6222L448.305 15.574C449.606 15.106 450.26 13.6744 449.799 12.3805C449.324 11.0934 447.906 10.4258 446.599 10.8938L446.488 10.9351C445.194 11.3962 444.52 12.8278 445.002 14.1218ZM381.378 15.0509C381.736 16.0696 382.699 16.7028 383.718 16.7028C384 16.7028 384.282 16.6546 384.571 16.5583L384.695 16.5101C385.975 16.0421 386.643 14.6105 386.168 13.3165C385.707 12.0226 384.282 11.3618 382.975 11.8298L382.885 11.8643C381.584 12.3392 380.91 13.757 381.378 15.0509ZM421.848 76.1764C422.213 77.195 423.17 77.8351 424.181 77.8351C424.471 77.8351 424.739 77.7732 425.035 77.6768L425.159 77.6287C426.453 77.1675 427.12 75.729 426.652 74.442C426.177 73.1411 424.739 72.4873 423.466 72.9484L423.356 72.9897C422.041 73.4577 421.394 74.8824 421.848 76.1764ZM428.49 73.9533C428.848 74.9719 429.812 75.5983 430.837 75.5983C431.099 75.5983 431.415 75.5501 431.684 75.4606L431.801 75.4055C433.088 74.9306 433.762 73.5059 433.287 72.212C432.826 70.918 431.415 70.2504 430.094 70.7253L429.997 70.7666C428.697 71.2277 428.029 72.6593 428.49 73.9533ZM400.443 75.7703C400.629 75.8047 400.801 75.8323 400.98 75.8323C402.136 75.8323 403.162 75.0339 403.416 73.8707C403.712 72.5354 402.859 71.2002 401.524 70.9042L401.455 70.8836C400.119 70.567 398.77 71.386 398.44 72.7213C398.11 74.0565 398.936 75.4055 400.271 75.729L400.443 75.7703ZM408.076 77.1951C408.214 77.2226 408.331 77.2295 408.441 77.2295C409.666 77.2295 410.733 76.3347 410.898 75.1027C411.111 73.7399 410.175 72.4735 408.819 72.2739L408.654 72.2533C407.284 72.0605 406.073 73.031 405.901 74.4007C405.722 75.7703 406.706 77.023 408.076 77.1951ZM415.959 77.8313L415.968 77.8325L415.978 77.8334L415.988 77.8341C415.996 77.8346 416.003 77.8348 416.008 77.835L416.019 77.8351C417.354 77.8351 418.462 76.7614 418.503 75.4055C418.538 74.029 417.471 72.8865 416.087 72.8452H415.922H415.888C414.532 72.8452 413.472 73.9395 413.451 75.3023C413.417 76.672 414.573 77.8076 415.943 77.8283L415.951 77.83L415.959 77.8313ZM414.387 13.8078C412.57 13.8078 410.746 14.1244 408.977 14.73C396.451 19.0317 392.968 30.8976 392.871 37.2297C392.816 41.1046 393.615 53.9547 406.073 57.0106C409.631 57.8847 412.976 58.3252 416.018 58.3252C424.408 58.3252 430.21 54.9458 433.239 48.2971C440.472 32.4393 432.275 23.4642 431.903 23.0994L431.773 22.9343C431.718 22.8448 424.264 13.8078 414.387 13.8078ZM416.018 63.3014C412.591 63.3014 408.826 62.8196 404.882 61.8492C400.842 60.858 387.634 56.1365 387.888 37.1677C388.033 26.9262 394.11 14.558 407.346 10.0154C409.658 9.23077 412.012 8.83156 414.387 8.83156C426.26 8.83156 434.691 18.6601 435.579 19.7407C436.68 20.9176 446.171 31.9782 437.781 50.3619C433.893 58.8208 426.39 63.3014 416.018 63.3014Z" fill="#E05F38"/>
<path d="M293.938 16.0179L288.778 8.26244C289.48 8.31567 290.19 8.37341 290.908 8.43206L290.984 8.43829C293.648 8.65569 296.445 8.884 299.26 8.884C303.118 8.884 307.013 9.2036 311.067 9.53692L311.086 9.53848C315.093 9.86788 319.254 10.21 323.447 10.21C325.028 10.21 326.535 10.0924 327.92 9.98447L327.978 9.97993C329.41 9.86824 330.718 9.76801 332.066 9.76801C332.311 9.76801 332.584 9.74544 332.863 9.7105C332.718 10.0741 332.582 10.422 332.45 10.7574C331.915 12.1251 331.46 13.2863 330.788 14.4634C330.426 15.0964 329.999 15.803 329.545 16.5549C328.415 18.424 327.117 20.573 326.231 22.5667C325.722 23.7123 325.242 24.8116 324.779 25.8732C322.088 32.041 319.951 36.9384 315.8 42.2754C314.208 44.3219 313.247 45.5304 312.643 46.2832C312.507 46.453 312.383 46.6061 312.271 46.7452C311.924 47.1755 311.686 47.4711 311.514 47.708C311.31 47.9891 311.154 48.2466 311 48.5112C310.035 47.4644 309.034 46.1488 308.043 44.6382C306.272 41.9367 304.737 38.9232 303.698 36.4979C301.057 30.3356 297.417 21.9235 294.026 16.1586C293.998 16.1109 293.969 16.064 293.938 16.0179Z" stroke="#BB8C48" stroke-width="6" stroke-linejoin="round"/>
<path opacity="0.3" d="M273.68 94.1012C273.733 94.1915 273.791 94.279 273.853 94.3632L278.056 100.05L267.504 100.05C263.389 100.05 259.946 100.339 256.613 100.619L256.544 100.625C253.224 100.904 250.005 101.173 246.156 101.18L246.127 101.177L245.613 101.124C245.169 101.078 244.536 101.012 243.777 100.932C242.257 100.771 240.237 100.554 238.229 100.327C236.881 100.174 235.547 100.018 234.378 99.8715C235.089 98.5679 235.903 97.2597 236.777 95.8845C236.914 95.6699 237.052 95.4532 237.192 95.2345C238.656 92.9396 240.262 90.4236 241.475 87.6931C241.984 86.5475 242.464 85.4482 242.927 84.3865C245.618 78.2188 247.755 73.3214 251.906 67.9844C253.498 65.9379 254.459 64.7294 255.063 63.9766C255.199 63.8068 255.323 63.6537 255.435 63.5146C255.782 63.0843 256.02 62.7887 256.192 62.5517C256.324 62.3708 256.435 62.1996 256.539 62.0299C256.634 62.1607 256.731 62.2971 256.83 62.4394C257.837 63.8898 258.869 65.6967 259.873 67.6481C261.658 71.1225 263.242 74.8353 264.354 77.4429C264.493 77.767 264.624 78.0741 264.747 78.3615C266.702 82.9234 268.826 86.2951 270.994 89.7371C271.885 91.1508 272.783 92.5764 273.68 94.1012Z" stroke="#666160" stroke-width="6" stroke-linejoin="round"/>
<path opacity="0.1" d="M265.738 133.475C269.13 125.843 271.394 119.761 276.542 113.143C282.944 104.912 279.27 110.08 282.976 104.18C287.309 106.888 292.315 119.063 294.508 124.18C297.169 130.389 299.994 134.012 303.27 139.58L311.008 150.05L294.508 150.05C286.504 150.05 281.121 151.18 273.008 151.18C273.008 151.18 256.707 149.521 257.008 149.18C259.116 143.558 263.301 138.957 265.738 133.475Z" fill="#666160"/>
</g>
</svg>
