<svg width="158" height="56" viewBox="0 0 158 56" fill="none" xmlns="http://www.w3.org/2000/svg">
<path fill-rule="evenodd" clip-rule="evenodd" d="M92.8397 50.9361C93.4086 50.9361 93.8531 51.1042 94.1728 51.4398C94.2841 51.5565 94.3705 51.6773 94.433 51.8026C94.4949 51.9279 94.5394 52.0446 94.5663 52.1518C94.5928 52.259 94.6083 52.351 94.6128 52.427C94.6173 52.503 94.6198 52.5503 94.6198 52.5679L93.6064 52.5347V52.5478C93.6064 52.4939 93.5974 52.4326 93.5799 52.3631C93.5619 52.2937 93.5265 52.2288 93.473 52.1684C93.4196 52.108 93.3417 52.0577 93.2398 52.0174C93.1374 51.9772 93.0041 51.9571 92.8397 51.9571C92.6799 51.9571 92.5521 51.9727 92.4562 52.0039C92.3608 52.0356 92.2873 52.0733 92.2364 52.1181C92.185 52.1629 92.151 52.2097 92.133 52.259C92.1155 52.3083 92.1065 52.3485 92.1065 52.3802V52.427L92.0996 52.4336C92.0996 52.4784 92.104 52.5231 92.113 52.5679C92.122 52.6041 92.133 52.6434 92.1465 52.6856C92.16 52.7279 92.184 52.7672 92.2199 52.8034C92.3218 52.906 92.4931 52.9579 92.7334 52.9579C93.3642 52.9579 93.8506 53.0952 94.1927 53.3705C94.5354 53.6462 94.7062 54.0346 94.7062 54.5358C94.7062 54.6792 94.6717 54.8357 94.6033 55.0058C94.5339 55.1763 94.425 55.3348 94.2762 55.4828C94.1273 55.6307 93.933 55.7539 93.6933 55.8521C93.4531 55.9507 93.1619 56 92.8198 56C92.571 56 92.3373 55.9592 92.12 55.8792C91.9018 55.7987 91.71 55.6911 91.5432 55.5567C91.3764 55.4224 91.2455 55.2644 91.1496 55.0832C91.0542 54.9021 91.0068 54.7104 91.0068 54.5091H92.0196C92.0196 54.5494 92.0386 54.5962 92.0766 54.65C92.1145 54.7039 92.1675 54.7552 92.2364 54.8045C92.3053 54.8538 92.3887 54.895 92.4866 54.9288C92.584 54.9625 92.6954 54.9791 92.8198 54.9791C93.0195 54.9791 93.1774 54.9554 93.2932 54.9086C93.4086 54.8618 93.495 54.81 93.5529 54.7542C93.6109 54.6983 93.6553 54.6228 93.6863 54.5292C93.6863 54.4754 93.6828 54.4216 93.6763 54.3682C93.6698 54.3144 93.6483 54.2651 93.6129 54.2203C93.551 54.1443 93.4441 54.085 93.2932 54.0422C93.1419 53.9994 92.9551 53.9783 92.7334 53.9783C92.564 53.9783 92.4117 53.9627 92.2764 53.9315C92.1405 53.9003 92.0221 53.861 91.9198 53.8137C91.8174 53.7669 91.7285 53.7141 91.653 53.6558C91.5776 53.5979 91.5157 53.5395 91.4668 53.4812C91.3689 53.374 91.2934 53.2608 91.24 53.142C91.1866 53.0238 91.1486 52.9116 91.1266 52.8064C91.1042 52.7013 91.0922 52.6097 91.0897 52.5312C91.0877 52.4532 91.0867 52.3958 91.0867 52.3596C91.0867 52.3284 91.0912 52.2781 91.0997 52.2086C91.1086 52.1392 91.1276 52.0622 91.1566 51.9772C91.1851 51.8922 91.2255 51.8016 91.2765 51.705C91.3274 51.6089 91.3978 51.5158 91.4867 51.4262C91.8109 51.0997 92.2619 50.9361 92.8397 50.9361ZM31.1711 50.9361C31.74 50.9361 32.1845 51.1042 32.5042 51.4398C32.6156 51.5565 32.702 51.6773 32.7644 51.8026C32.8268 51.9279 32.8713 52.0446 32.8977 52.1518C32.9242 52.259 32.9397 52.351 32.9442 52.427C32.9487 52.503 32.9512 52.5503 32.9512 52.5679L31.9378 52.5347V52.5478C31.9378 52.4939 31.9288 52.4326 31.9108 52.3631C31.8934 52.2937 31.8579 52.2288 31.8044 52.1684C31.751 52.108 31.6736 52.0577 31.5712 52.0174C31.4688 51.9772 31.3355 51.9571 31.1711 51.9571C31.0113 51.9571 30.8835 51.9727 30.7881 52.0039C30.6922 52.0356 30.6188 52.0733 30.5678 52.1181C30.5169 52.1629 30.4824 52.2097 30.4644 52.259C30.4469 52.3083 30.438 52.3485 30.438 52.3802V52.427L30.4315 52.4336C30.4315 52.4784 30.4355 52.5231 30.4444 52.5679C30.4534 52.6041 30.4644 52.6434 30.4779 52.6856C30.4909 52.7279 30.5154 52.7672 30.5513 52.8034C30.6532 52.906 30.8245 52.9579 31.0648 52.9579C31.6956 52.9579 32.182 53.0952 32.5242 53.3705C32.8668 53.6462 33.0376 54.0346 33.0376 54.5358C33.0376 54.6792 33.0031 54.8357 32.9342 55.0058C32.8653 55.1763 32.7564 55.3348 32.6076 55.4828C32.4587 55.6307 32.2644 55.7539 32.0242 55.8521C31.7845 55.9507 31.4933 56 31.1512 56C30.9024 56 30.6687 55.9592 30.4514 55.8792C30.2332 55.7987 30.0414 55.6911 29.8746 55.5567C29.7078 55.4224 29.5769 55.2644 29.481 55.0832C29.3856 54.9021 29.3377 54.7104 29.3377 54.5091H30.3511C30.3511 54.5494 30.37 54.5962 30.408 54.65C30.4454 54.7039 30.4989 54.7552 30.5678 54.8045C30.6367 54.8538 30.7201 54.895 30.818 54.9288C30.9154 54.9625 31.0268 54.9791 31.1512 54.9791C31.3509 54.9791 31.5088 54.9554 31.6246 54.9086C31.74 54.8618 31.8264 54.81 31.8844 54.7542C31.9423 54.6983 31.9867 54.6228 32.0177 54.5292C32.0177 54.4754 32.0142 54.4216 32.0077 54.3682C32.0012 54.3144 31.9798 54.2651 31.9443 54.2203C31.8824 54.1443 31.7755 54.085 31.6246 54.0422C31.4733 53.9994 31.2865 53.9783 31.0648 53.9783C30.8955 53.9783 30.7431 53.9627 30.6078 53.9315C30.4724 53.9003 30.3535 53.861 30.2512 53.8137C30.1488 53.7669 30.0599 53.7141 29.9845 53.6558C29.909 53.5979 29.8466 53.5395 29.7982 53.4812C29.7003 53.374 29.6249 53.2608 29.5714 53.142C29.518 53.0238 29.48 52.9116 29.458 52.8064C29.4356 52.7013 29.4236 52.6097 29.4211 52.5312C29.4191 52.4532 29.4181 52.3958 29.4181 52.3596C29.4181 52.3284 29.4221 52.2781 29.4311 52.2086C29.4401 52.1392 29.459 52.0622 29.488 51.9772C29.517 51.8922 29.5569 51.8016 29.6079 51.705C29.6588 51.6089 29.7292 51.5158 29.8181 51.4262C30.1423 51.0997 30.5933 50.9361 31.1711 50.9361ZM96.5731 51.0302V53.1254H98.2727V51.0302H99.2996V55.9597H98.2727V54.1528H96.5731V55.9597H95.5532V51.0302H96.5731ZM101.473 51.0301V55.9531H100.46V51.0301H101.473ZM40.0837 51.0301V55.9531H39.0703V51.0301H40.0837ZM112.765 51.0165C112.925 51.0165 113.099 51.0482 113.285 51.1106C113.472 51.1735 113.644 51.2742 113.802 51.413C113.96 51.5519 114.092 51.7331 114.198 51.957C114.305 52.1809 114.359 52.4536 114.359 52.7761C114.359 53.4076 114.178 53.8977 113.819 54.2469C113.703 54.3636 113.583 54.4532 113.459 54.5156C113.334 54.5785 113.218 54.6253 113.109 54.657C113 54.6882 112.906 54.7063 112.829 54.7103C112.751 54.7148 112.698 54.7173 112.672 54.7173H111.399V55.9531H110.392V51.0165H112.765ZM105.073 51.0165C105.232 51.0165 105.406 51.0482 105.593 51.1106C105.779 51.1735 105.951 51.2742 106.109 51.413C106.267 51.5519 106.399 51.7331 106.506 51.957C106.612 52.1809 106.666 52.4536 106.666 52.7761C106.666 53.4076 106.486 53.8977 106.126 54.2469C106.011 54.3636 105.89 54.4532 105.766 54.5156C105.642 54.5785 105.525 54.6253 105.416 54.657C105.307 54.6882 105.213 54.7063 105.136 54.7103C105.058 54.7148 105.006 54.7173 104.979 54.7173H103.706V55.9531H102.699V51.0165H105.073ZM137.917 51.0235L139.664 55.9531H138.557L138.304 55.2275H136.331L136.077 55.9531H134.971L136.717 51.0235H137.917ZM2.97357 51.0235L4.72014 55.9531H3.61336L3.36014 55.2275H1.38682L1.1336 55.9531H0.0268204L1.77339 51.0235H2.97357ZM24.3985 51.0235L26.145 55.9531H25.0383L24.785 55.2275H22.8117L22.5585 55.9531H21.4517L23.1983 51.0235H24.3985ZM15.8659 51.0301V55.9531H14.8525V51.0301H15.8659ZM74.6013 51.0235L76.3479 55.9531H75.2411L74.9879 55.2275H73.0146L72.7613 55.9531H71.6546L73.4011 51.0235H74.6013ZM12.0327 51.0168C12.0502 51.0168 12.0991 51.0198 12.1795 51.0269C12.2594 51.0334 12.3558 51.0535 12.4692 51.0872C12.5826 51.1209 12.7059 51.1713 12.8393 51.2382C12.9726 51.3056 13.1015 51.4017 13.2259 51.527C13.5949 51.8988 13.7792 52.4091 13.7792 53.0581C13.7792 53.3137 13.7403 53.5351 13.6624 53.7228C13.585 53.911 13.4816 54.07 13.3527 54.1998C13.4816 54.3166 13.5924 54.4474 13.6858 54.5928C13.7792 54.7382 13.8562 54.8881 13.9161 55.0426C13.976 55.1971 14.019 55.3531 14.0459 55.5096C14.0724 55.6666 14.0859 55.814 14.0859 55.9529H13.0795C13.0795 55.9217 13.076 55.8688 13.0695 55.7949C13.0625 55.7209 13.048 55.6394 13.0261 55.5498C13.0036 55.4603 12.9701 55.3687 12.9262 55.2746C12.8812 55.1805 12.8203 55.0929 12.7424 55.0129C12.665 54.9319 12.5681 54.8675 12.4527 54.8177C12.3368 54.7689 12.197 54.7443 12.0327 54.7443H10.826V55.9529H9.82611V51.0168H12.0327ZM147.749 51.0164L149.069 54.3881L150.369 51.0164H151.443V55.953H150.402V53.9514L149.583 55.953H148.556L147.709 53.9182V55.953H146.67V51.0164H147.749ZM77.6011 51.0163C77.7429 51.0163 77.8952 51.0179 78.0576 51.0199C78.2199 51.0224 78.3877 51.0325 78.561 51.0501C78.7343 51.0682 78.9076 51.0974 79.0809 51.1376C79.2542 51.1779 79.423 51.2337 79.5874 51.3057C79.7342 51.3726 79.884 51.4612 80.0374 51.5708C80.1907 51.6805 80.3285 51.8214 80.4509 51.994C80.5733 52.1661 80.6742 52.3744 80.7541 52.6184C80.834 52.8625 80.8739 53.1523 80.8739 53.4884C80.8739 53.9 80.812 54.2457 80.6877 54.5259C80.5628 54.8057 80.402 55.0372 80.2042 55.2208C80.0064 55.4045 79.7851 55.5453 79.5409 55.644C79.2962 55.7426 79.0529 55.815 78.8107 55.8623C78.5685 55.9091 78.3397 55.9358 78.1245 55.9428C77.9087 55.9494 77.7344 55.9529 77.6011 55.9529H77.1011V51.0163H77.6011ZM88.4801 51.0168C88.4976 51.0168 88.5466 51.0198 88.6265 51.0269C88.7064 51.0334 88.8033 51.0535 88.9167 51.0872C89.03 51.1209 89.1534 51.1713 89.2868 51.2382C89.4201 51.3056 89.549 51.4017 89.6733 51.527C90.0419 51.8988 90.2267 52.4091 90.2267 53.0581C90.2267 53.3137 90.1878 53.5351 90.1098 53.7228C90.0319 53.911 89.9286 54.07 89.7997 54.1998C89.9286 54.3166 90.0399 54.4474 90.1333 54.5928C90.2267 54.7382 90.3031 54.8881 90.3636 55.0426C90.423 55.1971 90.4665 55.3531 90.4934 55.5096C90.5199 55.6666 90.5334 55.814 90.5334 55.9529H89.5265C89.5265 55.9217 89.5235 55.8688 89.5165 55.7949C89.51 55.7209 89.4955 55.6394 89.4736 55.5498C89.4511 55.4603 89.4176 55.3687 89.3732 55.2746C89.3287 55.1805 89.2678 55.0929 89.1899 55.0129C89.1119 54.9319 89.0156 54.8675 88.9002 54.8177C88.7843 54.7689 88.6445 54.7443 88.4801 54.7443H87.2735V55.9529H86.2736V51.0168H88.4801ZM141.55 51.0164L142.87 54.3881L144.17 51.0164H145.243V55.953H144.203V53.9514L143.383 55.953H142.357L141.51 53.9182V55.953H140.47V51.0164H141.55ZM117.505 51.0168C117.523 51.0168 117.572 51.0198 117.652 51.0269C117.731 51.0334 117.828 51.0535 117.942 51.0872C118.055 51.1209 118.178 51.1713 118.312 51.2382C118.445 51.3056 118.574 51.4017 118.698 51.527C119.067 51.8988 119.252 52.4091 119.252 53.0581C119.252 53.3137 119.213 53.5351 119.135 53.7228C119.057 53.911 118.954 54.07 118.825 54.1998C118.954 54.3166 119.065 54.4474 119.158 54.5928C119.252 54.7382 119.328 54.8881 119.389 55.0426C119.448 55.1971 119.492 55.3531 119.518 55.5096C119.545 55.6666 119.558 55.814 119.558 55.9529H118.552C118.552 55.9217 118.549 55.8688 118.542 55.7949C118.535 55.7209 118.521 55.6394 118.499 55.5498C118.476 55.4603 118.443 55.3687 118.398 55.2746C118.354 55.1805 118.293 55.0929 118.215 55.0129C118.137 54.9319 118.041 54.8675 117.925 54.8177C117.809 54.7689 117.67 54.7443 117.505 54.7443H116.299V55.9529H115.299V51.0168H117.505ZM132.544 51.0168C132.562 51.0168 132.611 51.0198 132.69 51.0269C132.77 51.0334 132.867 51.0535 132.981 51.0872C133.094 51.1209 133.217 51.1713 133.351 51.2382C133.484 51.3056 133.613 51.4017 133.737 51.527C134.106 51.8988 134.291 52.4091 134.291 53.0581C134.291 53.3137 134.252 53.5351 134.174 53.7228C134.096 53.911 133.993 54.07 133.864 54.1998C133.993 54.3166 134.104 54.4474 134.197 54.5928C134.291 54.7382 134.367 54.8881 134.428 55.0426C134.487 55.1971 134.53 55.3531 134.557 55.5096C134.584 55.6666 134.597 55.814 134.597 55.9529H133.591C133.591 55.9217 133.588 55.8688 133.581 55.7949C133.574 55.7209 133.56 55.6394 133.538 55.5498C133.515 55.4603 133.482 55.3687 133.437 55.2746C133.393 55.1805 133.332 55.0929 133.254 55.0129C133.176 54.9319 133.08 54.8675 132.964 54.8177C132.848 54.7689 132.708 54.7443 132.544 54.7443H131.337V55.9529H130.338V51.0168H132.544ZM8.8328 51.03V52.0444H6.55981V53.1523H8.7464V54.1667H6.55981V55.953H5.55342V51.03H8.8328ZM64.3687 51.0234V54.9184H66.6687V55.953H63.3488V51.0234H64.3687ZM46.8964 51.0163L49.0031 54.2135V51.0234H50.0429V55.9529H48.8967L46.79 52.7563V55.9529H45.7502V51.0163H46.8964ZM127.371 51.0302C127.802 51.0302 128.194 51.1319 128.548 51.3357C128.901 51.5394 129.188 51.8091 129.411 52.1447L128.677 52.897C128.562 52.6419 128.389 52.4361 128.158 52.2791C127.926 52.1226 127.664 52.0441 127.371 52.0441C127.176 52.0441 126.991 52.0823 126.817 52.1583C126.644 52.2343 126.493 52.3375 126.364 52.4673C126.235 52.5971 126.133 52.7495 126.058 52.9241C125.982 53.0987 125.944 53.2864 125.944 53.4882C125.944 53.6895 125.982 53.8776 126.058 54.0522C126.133 54.2268 126.235 54.3803 126.364 54.5121C126.493 54.6445 126.644 54.7486 126.817 54.8246C126.991 54.9006 127.176 54.9388 127.371 54.9388C127.478 54.9388 127.588 54.9232 127.701 54.8915C127.814 54.8603 127.926 54.8146 128.038 54.7542C128.149 54.6938 128.251 54.6208 128.344 54.5358C128.438 54.4508 128.518 54.3546 128.585 54.247H127.371V53.2396H129.498V54.6832C129.391 54.8714 129.263 55.043 129.114 55.1969C128.965 55.3519 128.8 55.4853 128.617 55.597C128.435 55.7092 128.238 55.7952 128.028 55.8556C127.816 55.916 127.598 55.9462 127.371 55.9462C127.038 55.9462 126.723 55.8813 126.428 55.7514C126.132 55.6216 125.875 55.4455 125.654 55.2241C125.435 55.0027 125.26 54.7431 125.131 54.4452C125.002 54.1473 124.938 53.8283 124.938 53.4882C124.938 53.1481 125.002 52.8291 125.131 52.5312C125.26 52.2333 125.435 51.9737 125.654 51.7523C125.875 51.5304 126.132 51.3548 126.428 51.225C126.723 51.0951 127.038 51.0302 127.371 51.0302ZM36.1975 51.0163C36.4152 51.0163 36.6265 51.0445 36.8308 51.1009C37.035 51.1567 37.2263 51.2362 37.4041 51.3389C37.5819 51.442 37.7437 51.5663 37.8906 51.7117C38.0374 51.8571 38.1643 52.0176 38.2707 52.1922L37.524 52.944C37.4705 52.8096 37.4006 52.6869 37.3142 52.5747C37.2273 52.463 37.1264 52.3663 37.0106 52.2863C36.8952 52.2053 36.7683 52.1429 36.631 52.0981C36.4931 52.0534 36.3483 52.0307 36.1975 52.0307C36.0017 52.0307 35.8164 52.069 35.6411 52.1449C35.4653 52.2214 35.3129 52.3251 35.1841 52.4574C35.0552 52.5892 34.9533 52.7427 34.8774 52.9173C34.802 53.0919 34.764 53.2801 34.764 53.4814C34.764 53.6826 34.802 53.8708 34.8774 54.0454C34.9533 54.22 35.0552 54.3735 35.1841 54.5053C35.3129 54.6376 35.4653 54.7418 35.6411 54.8178C35.8164 54.8937 36.0017 54.932 36.1975 54.932C36.3483 54.932 36.4931 54.9093 36.631 54.8646C36.7683 54.8203 36.8952 54.7574 37.0106 54.6769C37.1264 54.5964 37.2273 54.5013 37.3142 54.3916C37.4006 54.2819 37.4705 54.1596 37.524 54.0253L38.2707 54.7775C38.1643 54.9521 38.0374 55.1111 37.8906 55.2545C37.7437 55.3979 37.5819 55.5207 37.4041 55.6238C37.2263 55.727 37.035 55.806 36.8308 55.8623C36.6265 55.9182 36.4152 55.9464 36.1975 55.9464C35.8598 55.9464 35.5432 55.8815 35.2475 55.7516C34.9518 55.6218 34.6941 55.4447 34.4744 55.2208C34.2541 54.9969 34.0798 54.7362 33.9509 54.4384C33.8221 54.141 33.7576 53.8215 33.7576 53.4814C33.7576 53.1412 33.8221 52.8222 33.9509 52.5243C34.0798 52.2265 34.2541 51.9658 34.4744 51.7419C34.6941 51.518 34.9518 51.3414 35.2475 51.2116C35.5432 51.0818 35.8598 51.0163 36.1975 51.0163ZM19.1121 51.0163C19.3298 51.0163 19.5411 51.0445 19.7454 51.1009C19.9496 51.1567 20.1409 51.2362 20.3187 51.3389C20.4965 51.442 20.6583 51.5663 20.8052 51.7117C20.952 51.8571 21.0789 52.0176 21.1853 52.1922L20.4386 52.944C20.3852 52.8096 20.3152 52.6869 20.2288 52.5747C20.1419 52.463 20.041 52.3663 19.9257 52.2863C19.8098 52.2053 19.6829 52.1429 19.5456 52.0981C19.4077 52.0534 19.2634 52.0307 19.1121 52.0307C18.9163 52.0307 18.731 52.069 18.5557 52.1449C18.3799 52.2214 18.2275 52.3251 18.0987 52.4574C17.9698 52.5892 17.8679 52.7427 17.792 52.9173C17.7166 53.0919 17.6786 53.2801 17.6786 53.4814C17.6786 53.6826 17.7166 53.8708 17.792 54.0454C17.8679 54.22 17.9698 54.3735 18.0987 54.5053C18.2275 54.6376 18.3799 54.7418 18.5557 54.8178C18.731 54.8937 18.9163 54.932 19.1121 54.932C19.2634 54.932 19.4077 54.9093 19.5456 54.8646C19.6829 54.8203 19.8098 54.7574 19.9257 54.6769C20.041 54.5964 20.1419 54.5013 20.2288 54.3916C20.3152 54.2819 20.3852 54.1596 20.4386 54.0253L21.1853 54.7775C21.0789 54.9521 20.952 55.1111 20.8052 55.2545C20.6583 55.3979 20.4965 55.5207 20.3187 55.6238C20.1409 55.727 19.9496 55.806 19.7454 55.8623C19.5411 55.9182 19.3298 55.9464 19.1121 55.9464C18.7744 55.9464 18.4578 55.8815 18.1621 55.7516C17.8664 55.6218 17.6087 55.4447 17.389 55.2208C17.1687 54.9969 16.9944 54.7362 16.8655 54.4384C16.7367 54.141 16.6723 53.8215 16.6723 53.4814C16.6723 53.1412 16.7367 52.8222 16.8655 52.5243C16.9944 52.2265 17.1687 51.9658 17.389 51.7419C17.6087 51.518 17.8664 51.3414 18.1621 51.2116C18.4578 51.0818 18.7744 51.0163 19.1121 51.0163ZM53.3362 51.0163C53.5539 51.0163 53.7652 51.0445 53.9695 51.1009C54.1738 51.1567 54.365 51.2362 54.5429 51.3389C54.7207 51.442 54.8825 51.5663 55.0293 51.7117C55.1762 51.8571 55.303 52.0176 55.4094 52.1922L54.6627 52.944C54.6093 52.8096 54.5394 52.6869 54.453 52.5747C54.366 52.463 54.2652 52.3663 54.1498 52.2863C54.0339 52.2053 53.9071 52.1429 53.7697 52.0981C53.6319 52.0534 53.487 52.0307 53.3362 52.0307C53.1404 52.0307 52.9551 52.069 52.7798 52.1449C52.604 52.2214 52.4517 52.3251 52.3228 52.4574C52.1939 52.5892 52.0921 52.7427 52.0161 52.9173C51.9407 53.0919 51.9028 53.2801 51.9028 53.4814C51.9028 53.6826 51.9407 53.8708 52.0161 54.0454C52.0921 54.22 52.1939 54.3735 52.3228 54.5053C52.4517 54.6376 52.604 54.7418 52.7798 54.8178C52.9551 54.8937 53.1404 54.932 53.3362 54.932C53.487 54.932 53.6319 54.9093 53.7697 54.8646C53.9071 54.8203 54.0339 54.7574 54.1498 54.6769C54.2652 54.5964 54.366 54.5013 54.453 54.3916C54.5394 54.2819 54.6093 54.1596 54.6627 54.0253L55.4094 54.7775C55.303 54.9521 55.1762 55.1111 55.0293 55.2545C54.8825 55.3979 54.7207 55.5207 54.5429 55.6238C54.365 55.727 54.1738 55.806 53.9695 55.8623C53.7652 55.9182 53.5539 55.9464 53.3362 55.9464C52.9986 55.9464 52.6819 55.8815 52.3862 55.7516C52.0906 55.6218 51.8328 55.4447 51.6131 55.2208C51.3928 54.9969 51.2185 54.7362 51.0897 54.4384C50.9608 54.141 50.8964 53.8215 50.8964 53.4814C50.8964 53.1412 50.9608 52.8222 51.0897 52.5243C51.2185 52.2265 51.3928 51.9658 51.6131 51.7419C51.8328 51.518 52.0906 51.3414 52.3862 51.2116C52.6819 51.0818 52.9986 51.0163 53.3362 51.0163ZM59.6024 51.0234V52.0444H57.3159V53.0452H59.516V54.0726H57.3159V54.9184H59.6024V55.9459H56.3026V51.0234H59.6024ZM44.5968 51.0234V52.0444H42.3103V53.0452H44.5104V54.0726H42.3103V54.9184H44.5968V55.9459H41.2969V51.0234H44.5968ZM70.8616 51.0234V52.0444H68.5752V53.0452H70.7752V54.0726H68.5752V54.9184H70.8616V55.9459H67.5618V51.0234H70.8616ZM85.1137 51.0234V52.0444H82.8272V53.0452H85.0273V54.0726H82.8272V54.9184H85.1137V55.9459H81.8139V51.0234H85.1137ZM122.418 51.0164C122.756 51.0164 123.072 51.0818 123.368 51.2116C123.664 51.3414 123.921 51.5181 124.141 51.742C124.361 51.9659 124.536 52.2265 124.665 52.5244C124.793 52.8223 124.858 53.1413 124.858 53.4814C124.858 53.8215 124.793 54.1406 124.665 54.4384C124.536 54.7363 124.361 54.9969 124.141 55.2209C123.921 55.4448 123.664 55.6219 123.368 55.7517C123.072 55.8815 122.756 55.9459 122.418 55.9459C122.08 55.9459 121.763 55.8815 121.468 55.7517C121.172 55.6219 120.915 55.4448 120.695 55.2209C120.475 54.9969 120.3 54.7363 120.172 54.4384C120.043 54.1406 119.978 53.8215 119.978 53.4814C119.978 53.1413 120.043 52.8223 120.172 52.5244C120.3 52.2265 120.475 51.9659 120.695 51.742C120.915 51.5181 121.172 51.3414 121.468 51.2116C121.763 51.0818 122.08 51.0164 122.418 51.0164ZM122.418 52.0308C122.218 52.0308 122.032 52.069 121.858 52.145C121.685 52.221 121.534 52.3251 121.405 52.4575C121.276 52.5893 121.173 52.7428 121.099 52.9174C121.023 53.092 120.985 53.2801 120.985 53.4814C120.985 53.6827 121.023 53.8709 121.099 54.0455C121.173 54.2201 121.276 54.3735 121.405 54.5054C121.534 54.6377 121.685 54.7418 121.858 54.8178C122.032 54.8938 122.218 54.932 122.418 54.932C122.613 54.932 122.798 54.8938 122.971 54.8178C123.145 54.7418 123.297 54.6377 123.428 54.5054C123.559 54.3735 123.663 54.2201 123.738 54.0455C123.814 53.8709 123.852 53.6827 123.852 53.4814C123.852 53.2801 123.814 53.092 123.738 52.9174C123.663 52.7428 123.559 52.5893 123.428 52.4575C123.297 52.3251 123.145 52.221 122.971 52.145C122.798 52.069 122.613 52.0308 122.418 52.0308ZM78.1075 52.0443V54.9254C78.4231 54.9033 78.6918 54.8595 78.9141 54.7946C79.1364 54.7297 79.3187 54.6391 79.461 54.5224C79.6033 54.4062 79.7062 54.2628 79.7707 54.0927C79.8351 53.9226 79.8676 53.7209 79.8676 53.4884C79.8676 53.2152 79.8321 52.9888 79.7612 52.8096C79.6897 52.631 79.5809 52.4866 79.434 52.3769C79.2877 52.2672 79.1044 52.1877 78.8841 52.1384C78.6644 52.0891 78.4052 52.0579 78.1075 52.0443ZM74.001 52.4475L73.3747 54.2136H74.6278L74.001 52.4475ZM2.37323 52.4475L1.74692 54.2136H3.00004L2.37323 52.4475ZM23.7981 52.4475L23.1718 54.2136H24.4249L23.7981 52.4475ZM137.317 52.4475L136.691 54.2136H137.944L137.317 52.4475ZM117.498 52.0307H116.299V53.7299H117.505C117.558 53.7299 117.627 53.7223 117.711 53.7062C117.796 53.6906 117.878 53.6594 117.958 53.6121C118.038 53.5653 118.106 53.4979 118.161 53.4109C118.217 53.3233 118.245 53.2061 118.245 53.0581C118.245 52.8257 118.215 52.641 118.155 52.5042C118.095 52.3678 118.024 52.2646 117.942 52.1952C117.859 52.1258 117.776 52.081 117.692 52.0609C117.607 52.0407 117.543 52.0307 117.498 52.0307ZM132.537 52.0307H131.337V53.7299H132.544C132.597 53.7299 132.666 53.7223 132.75 53.7062C132.835 53.6906 132.917 53.6594 132.997 53.6121C133.077 53.5653 133.145 53.4979 133.2 53.4109C133.256 53.3233 133.284 53.2061 133.284 53.0581C133.284 52.8257 133.254 52.641 133.194 52.5042C133.134 52.3678 133.063 52.2646 132.981 52.1952C132.898 52.1258 132.815 52.081 132.73 52.0609C132.646 52.0407 132.582 52.0307 132.537 52.0307ZM88.4732 52.0307H87.2735V53.7299H88.4801C88.5331 53.7299 88.602 53.7223 88.6864 53.7062C88.7708 53.6906 88.8532 53.6594 88.9332 53.6121C89.0131 53.5653 89.081 53.4979 89.1364 53.4109C89.1919 53.3233 89.2198 53.2061 89.2198 53.0581C89.2198 52.8257 89.1899 52.641 89.1299 52.5042C89.07 52.3678 88.9991 52.2646 88.9167 52.1952C88.8343 52.1258 88.7508 52.081 88.6664 52.0609C88.582 52.0407 88.5176 52.0307 88.4732 52.0307ZM12.0262 52.0307H10.826V53.7299H12.0327C12.0861 53.7299 12.155 53.7223 12.2394 53.7062C12.3238 53.6906 12.4058 53.6594 12.4862 53.6121C12.5661 53.5653 12.6335 53.4979 12.6894 53.4109C12.7449 53.3233 12.7724 53.2061 12.7724 53.0581C12.7724 52.8257 12.7424 52.641 12.6825 52.5042C12.6225 52.3678 12.5516 52.2646 12.4692 52.1952C12.3873 52.1258 12.3039 52.081 12.2195 52.0609C12.1351 52.0407 12.0701 52.0307 12.0262 52.0307ZM105.066 52.0375H103.706V53.703H104.993C105.041 53.703 105.104 53.6944 105.179 53.6763C105.255 53.6587 105.327 53.6169 105.396 53.552C105.465 53.4871 105.525 53.394 105.576 53.2732C105.627 53.1525 105.652 52.9869 105.652 52.7761C105.652 52.6196 105.633 52.4933 105.593 52.3967C105.553 52.3006 105.503 52.2267 105.443 52.1753C105.383 52.1235 105.318 52.0878 105.249 52.0677C105.181 52.0475 105.119 52.0375 105.066 52.0375ZM112.758 52.0375H111.399V53.703H112.685C112.734 53.703 112.796 53.6944 112.872 53.6763C112.948 53.6587 113.02 53.6169 113.089 53.552C113.157 53.4871 113.218 53.394 113.268 53.2732C113.32 53.1525 113.345 52.9869 113.345 52.7761C113.345 52.6196 113.325 52.4933 113.285 52.3967C113.245 52.3006 113.195 52.2267 113.135 52.1753C113.076 52.1235 113.011 52.0878 112.942 52.0677C112.873 52.0475 112.812 52.0375 112.758 52.0375ZM62.1817 0C67.3994 0 71.4759 1.54019 74.4107 4.62007C75.4295 5.68829 76.2242 6.79727 76.7955 7.9465C77.3659 9.09674 77.774 10.1645 78.0187 11.1497C78.2634 12.1354 78.4058 12.9776 78.4467 13.6755C78.4867 14.3744 78.5077 14.8057 78.5077 14.9692L69.2134 14.6612L69.2131 14.7765L69.2104 14.6175C69.1962 14.2217 69.1323 13.7829 69.0202 13.3L68.9692 13.0904C68.8054 12.4539 68.4797 11.8586 67.9903 11.3036C67.5013 10.7496 66.7876 10.2877 65.8506 9.9179C64.9122 9.54808 63.6895 9.3634 62.1817 9.3634C60.7138 9.3634 59.5416 9.50783 58.6656 9.79463C57.7885 10.0824 57.1163 10.4316 56.6478 10.8417C56.1788 11.2528 55.8626 11.684 55.6998 12.1353C55.5365 12.5877 55.4556 12.9575 55.4556 13.2443V13.6755L55.3942 13.7374C55.3942 14.148 55.4346 14.5591 55.5165 14.9692C55.5979 15.2983 55.6998 15.657 55.8227 16.0475C55.9446 16.4379 56.1683 16.7967 56.4949 17.1253C57.4324 18.0702 59.0022 18.5422 61.2033 18.5422C66.9914 18.5422 71.4549 19.8051 74.5945 22.3305C77.733 24.8559 79.3028 28.4198 79.3028 33.0183C79.3028 34.3335 78.9866 35.7701 78.3548 37.3304C77.7225 38.8917 76.7241 40.3489 75.3586 41.7039C73.9926 43.0594 72.2096 44.1895 70.0085 45.0927C67.807 45.9954 65.1369 46.4478 61.9984 46.4478C59.7149 46.4478 57.5748 46.0779 55.578 45.3388C53.5802 44.5996 51.8171 43.6139 50.2888 42.3817C48.76 41.1499 47.5573 39.7023 46.6813 38.0388C45.8042 36.3754 45.3662 34.6203 45.3662 32.7722H54.6605C54.6605 33.1415 54.8333 33.5727 55.1804 34.0653C55.526 34.5584 56.0155 35.0309 56.6478 35.4823C57.2796 35.9346 58.0437 36.314 58.9407 36.6219C59.8368 36.9304 60.8566 37.0843 61.9984 37.0843C63.8323 37.0843 65.2793 36.8685 66.3396 36.4373C67.3994 36.006 68.194 35.5346 68.7245 35.0204C69.2539 34.5076 69.6614 33.8193 69.9471 32.9569C69.9471 32.4643 69.9166 31.9712 69.8557 31.4786C69.7943 30.9855 69.6005 30.5341 69.2748 30.1235C68.7035 29.4251 67.7251 28.8817 66.3396 28.4908C64.9536 28.1008 63.2415 27.9056 61.2033 27.9056C59.6535 27.9056 58.258 27.7622 57.0149 27.4744C55.7707 27.1876 54.6805 26.8278 53.7435 26.3961C52.805 25.9649 51.9904 25.4828 51.2977 24.9485C50.604 24.4151 50.0336 23.8813 49.5856 23.3469C48.6886 22.3612 47.9958 21.3247 47.5064 20.2363C47.0174 19.1485 46.6708 18.1215 46.467 17.1559C46.2627 16.1914 46.1509 15.3491 46.1309 14.6306C46.1099 13.9125 46.0999 13.3887 46.0999 13.0597C46.0999 12.7729 46.1404 12.3104 46.2223 11.6734C46.3037 11.0374 46.4765 10.329 46.7422 9.54807C47.0069 8.76866 47.374 7.93694 47.843 7.05338C48.311 6.17083 48.9528 5.31896 49.7689 4.49678C52.7441 1.49943 56.882 0 62.1817 0ZM142.406 0.73924C143.873 0.73924 145.463 1.02706 147.175 1.60117C148.887 2.17729 150.466 3.10111 151.914 4.37362C153.36 5.64713 154.574 7.31059 155.552 9.36351C156.531 11.4174 157.02 13.9217 157.02 16.8788C157.02 22.6692 155.368 27.166 152.067 30.3697C151.006 31.4379 149.905 32.2591 148.765 32.8337C147.623 33.4093 146.553 33.8405 145.555 34.1273C144.555 34.4151 143.699 34.5797 142.987 34.6199C142.273 34.6617 141.794 34.6813 141.55 34.6813H129.871V46.0166H120.637V0.73924H142.406ZM27.631 0.800984L27.7858 1.24026L43.6508 46.0165H32.4007L30.1452 39.5584H13.5046L11.2511 46.0165H0L16.0203 0.800984H27.631ZM93.6105 0.800831V36.5296H114.706V46.0163H84.2554V0.800831H93.6105ZM63.0562 4.22962C51.3381 4.22962 50.3847 9.16063 50.3847 15.1176C50.3847 21.6532 57.0368 23.9718 62.7336 23.9718C65.9011 23.9718 68.7679 24.633 70.8057 25.8325C73.3299 27.3189 74.6095 29.5927 74.6095 32.5911C74.6095 40.0017 66.3251 40.917 63.7859 41.0211C59.9396 41.1776 52.4224 40.3338 51.49 36.0096L50.3972 36.2486C51.4096 40.9431 58.291 42.1663 62.8499 42.1663C63.1911 42.1663 63.5197 42.1593 63.8313 42.1467C69.5825 41.9107 75.7277 39.2771 75.7277 32.5911C75.7277 29.2123 74.2209 26.539 71.37 24.8604C69.1635 23.5612 66.0964 22.8457 62.7336 22.8457C57.5528 22.8457 51.5025 20.8215 51.5025 15.1176C51.5025 9.40165 52.3315 5.35569 63.0562 5.35569C71.8394 5.35569 73.235 10.5712 73.435 11.7121L73.4465 11.7813C73.4581 11.8549 73.4634 11.9032 73.4652 11.922L74.5785 11.8174L74.577 11.804C74.5352 11.4439 73.5488 4.22962 63.0562 4.22962ZM89.6319 5.43147H88.2984V42.0574H110.522V40.7145H89.6319V5.43147ZM24.3901 5.43162H19.2602L6.5213 41.3858H7.99568L10.2017 35.0661H33.4481L35.6561 41.3858H37.129L24.3901 5.43162ZM142.53 4.85968H124.771V41.3281H125.905V30.3491L142.75 30.4225C148.44 30.3053 153.069 25.6736 153.069 20.0981V15.1861C153.069 9.49232 148.341 4.85968 142.53 4.85968ZM23.4184 6.83833L32.9344 33.6591H10.7179L20.2319 6.83833H23.4184ZM142.53 6.00307C147.715 6.00307 151.934 10.1225 151.934 15.1863V20.0983C151.934 25.056 147.804 29.1749 142.741 29.279L125.906 29.2061V6.00307H142.53ZM21.8256 16.1056L17.1782 29.2056H26.4735L21.8256 16.1056ZM142.344 10.1029H129.871V25.38H141.672C142.12 25.38 142.69 25.298 143.384 25.1334C144.076 24.9699 144.739 24.5895 145.371 23.9938C146.003 23.399 146.553 22.5462 147.022 21.4372C147.49 20.3282 147.725 18.8096 147.725 16.8785C147.725 15.442 147.542 14.2817 147.175 13.3986C146.808 12.5161 146.349 11.8383 145.799 11.3653C145.249 10.8938 144.657 10.5648 144.026 10.3796C143.393 10.1949 142.834 10.1029 142.344 10.1029Z" fill="#2E2E2E"/>
<path fill-rule="evenodd" clip-rule="evenodd" d="M153.869 52.0444V53.0452H156.069V54.0726H153.869V54.9184H156.155V55.9459H152.856V51.0234H156.155V52.0444H153.869Z" fill="#2E2E2E"/>
</svg>
